<?xml version="1.0" encoding="utf-8"?>
<!-- Generator: Adobe Illustrator 25.4.1, SVG Export Plug-In . SVG Version: 6.00 Build 0)  -->
<svg version="1.1" id="Layer_1" xmlns="http://www.w3.org/2000/svg" xmlns:xlink="http://www.w3.org/1999/xlink" x="0px" y="0px"
	 viewBox="0 0 275.7 459.8" style="enable-background:new 0 0 275.7 459.8;" xml:space="preserve">
<g>
	<path d="M275.7,234.7c-4.4,2.7-8.9,5.5-13.3,8.2c-9.7,6.1-19.5,12.1-29.2,18.2c-12.6,7.9-25.2,15.8-37.8,23.6
		c-10.4,6.5-20.7,12.9-31.1,19.4c-8.3,5.2-16.7,10.4-25,15.6c-1.1,0.7-1.8,0.7-2.9,0c-26.4-16.5-52.8-33-79.3-49.5
		C38.5,258.6,19.9,247,1.2,235.4c-0.4-0.2-0.8-0.5-1.2-0.8C45.9,156.4,91.8,78.3,137.9,0c1.8,3,3.4,5.8,5.1,8.6
		c14.4,24.5,28.8,49.1,43.2,73.6c13.5,22.9,27,45.9,40.5,68.8c13.5,23,27.1,46,40.6,69.1c2.6,4.4,5.1,8.7,7.7,13
		c0.2,0.4,0.5,0.7,0.8,1C275.7,234.3,275.7,234.5,275.7,234.7z"/>
	<path d="M137.9,459.8C91.9,394,46.1,328.5,0.3,262.9c0.1-0.1,0.1-0.1,0.2-0.2c2.8,1.8,5.7,3.5,8.5,5.3
		c10.4,6.5,20.7,12.9,31.1,19.4c12.7,7.9,25.5,15.9,38.2,23.8c10.3,6.4,20.6,12.8,30.8,19.2c8.9,5.6,17.8,11.1,26.7,16.7
		c1.5,1,2.6,1,4.1,0c18.1-11.4,36.2-22.6,54.3-34c16.5-10.3,33-20.6,49.5-30.9c10.3-6.4,20.6-12.9,31-19.3c0.2-0.1,0.4-0.2,0.8-0.2
		C229.6,328.5,183.8,394,137.9,459.8z"/>
</g>
</svg>
